<?xml version="1.0" encoding="UTF-8"?>
<svg version="1.1" xmlns="http://www.w3.org/2000/svg" width="64" height="64">
<path d="M0 0 C1.37478516 0.01740234 1.37478516 0.01740234 2.77734375 0.03515625 C3.69644531 0.04417969 4.61554687 0.05320313 5.5625 0.0625 C6.27277344 0.07410156 6.98304687 0.08570313 7.71484375 0.09765625 C9.47947058 3.1857532 9.71484375 4.33077761 9.71484375 8.09765625 C13.8944789 8.34436379 13.8944789 8.34436379 17.77734375 7.03515625 C19.71484375 6.09765625 19.71484375 6.09765625 22.21484375 6.22265625 C25.36208333 7.3241901 26.79301694 8.36274887 28.71484375 11.09765625 C28.52734375 14.03515625 28.52734375 14.03515625 27.71484375 17.09765625 C27.12792654 19.90181626 26.71484375 22.22194838 26.71484375 25.09765625 C28.41640625 25.31421875 28.41640625 25.31421875 30.15234375 25.53515625 C33.71484375 26.09765625 33.71484375 26.09765625 34.71484375 27.09765625 C34.78689886 28.78374591 34.79870443 30.47266284 34.77734375 32.16015625 C34.76832031 33.07925781 34.75929688 33.99835937 34.75 34.9453125 C34.73839844 35.65558594 34.72679688 36.36585937 34.71484375 37.09765625 C31.6267468 38.86228308 30.48172239 39.09765625 26.71484375 39.09765625 C26.46813621 43.2772914 26.46813621 43.2772914 27.77734375 47.16015625 C28.71484375 49.09765625 28.71484375 49.09765625 28.58984375 51.59765625 C27.4883099 54.74489583 26.44975113 56.17582944 23.71484375 58.09765625 C20.77734375 57.91015625 20.77734375 57.91015625 17.71484375 57.09765625 C14.91068374 56.51073904 12.59055162 56.09765625 9.71484375 56.09765625 C9.57046875 57.23203125 9.42609375 58.36640625 9.27734375 59.53515625 C8.71484375 63.09765625 8.71484375 63.09765625 7.71484375 64.09765625 C6.02875409 64.16971136 4.33983716 64.18151693 2.65234375 64.16015625 C1.27369141 64.14662109 1.27369141 64.14662109 -0.1328125 64.1328125 C-1.19822266 64.11541016 -1.19822266 64.11541016 -2.28515625 64.09765625 C-4.04978308 61.0095593 -4.28515625 59.86453489 -4.28515625 56.09765625 C-8.4647914 55.85094871 -8.4647914 55.85094871 -12.34765625 57.16015625 C-14.28515625 58.09765625 -14.28515625 58.09765625 -16.78515625 57.97265625 C-19.93239583 56.8711224 -21.36332944 55.83256363 -23.28515625 53.09765625 C-23.09765625 50.16015625 -23.09765625 50.16015625 -22.28515625 47.09765625 C-21.69823904 44.29349624 -21.28515625 41.97336412 -21.28515625 39.09765625 C-22.41953125 38.95328125 -23.55390625 38.80890625 -24.72265625 38.66015625 C-28.28515625 38.09765625 -28.28515625 38.09765625 -29.28515625 37.09765625 C-29.35721136 35.41156659 -29.36901693 33.72264966 -29.34765625 32.03515625 C-29.33863281 31.11605469 -29.32960938 30.19695313 -29.3203125 29.25 C-29.30871094 28.53972656 -29.29710938 27.82945313 -29.28515625 27.09765625 C-26.1970593 25.33302942 -25.05203489 25.09765625 -21.28515625 25.09765625 C-21.03844871 20.9180211 -21.03844871 20.9180211 -22.34765625 17.03515625 C-23.28515625 15.09765625 -23.28515625 15.09765625 -23.16015625 12.59765625 C-22.0586224 9.45041667 -21.02006363 8.01948306 -18.28515625 6.09765625 C-15.34765625 6.28515625 -15.34765625 6.28515625 -12.28515625 7.09765625 C-9.48099624 7.68457346 -7.16086412 8.09765625 -4.28515625 8.09765625 C-4.14078125 6.96328125 -3.99640625 5.82890625 -3.84765625 4.66015625 C-3.13298234 0.13388813 -3.13298234 0.13388813 0 0 Z M-6.28515625 28.09765625 C-6.9836275 30.93734265 -6.9836275 33.25796985 -6.28515625 36.09765625 C-4.29593739 39.08148455 -2.90013057 40.70042466 0.65234375 41.57421875 C4.57547867 41.85656558 6.38596746 41.31690711 9.71484375 39.09765625 C11.93409461 35.76877996 12.47375308 33.95829117 12.19140625 30.03515625 C11.31761216 26.48268193 9.69867205 25.08687511 6.71484375 23.09765625 C0.89821172 21.6669524 -2.89330531 23.00987984 -6.28515625 28.09765625 Z " fill="#000000" transform="translate(29.28515625,-0.09765625)"/>
</svg>
