<?xml version="1.0" encoding="UTF-8"?>
<svg version="1.1" xmlns="http://www.w3.org/2000/svg" width="32" height="32">
<path d="M0 0 C3.5625 0.1875 3.5625 0.1875 5.5625 2.1875 C5.88589354 5.22739923 6.01920212 7.33118353 4.5625 10.0625 C1.88419145 11.56904856 -0.42886329 11.22010652 -3.4296875 11.109375 C-6.45348054 11.22703232 -8.18946843 12.22047238 -10.4375 14.1875 C-10.4375 15.5075 -10.4375 16.8275 -10.4375 18.1875 C-7.43634658 20.81350925 -5.16822769 21.32977777 -1.3125 21.1875 C2.5625 21.1875 2.5625 21.1875 4.5625 22.3125 C6.01920212 25.04381647 5.88589354 27.14760077 5.5625 30.1875 C3.5625 32.1875 3.5625 32.1875 0.0625 32.4375 C-3.4375 32.1875 -3.4375 32.1875 -5.4375 30.1875 C-5.540625 29.383125 -5.64375 28.57875 -5.75 27.75 C-6.22392758 25.03740276 -6.22392758 25.03740276 -8.5 23.375 C-11.33498255 22.22894322 -12.61142968 22.08423971 -15.5625 22.1875 C-19.4375 22.1875 -19.4375 22.1875 -21.4375 21.0625 C-22.91651666 18.28934376 -22.82351984 16.27565875 -22.4375 13.1875 C-21.4375 11.3125 -21.4375 11.3125 -19.4375 10.1875 C-17.43736268 10.1875 -15.43654332 10.19166768 -13.4375 10.2578125 C-10.34815206 10.14920261 -8.73203071 9.21208592 -6.4375 7.1875 C-5.14518358 4.14550528 -5.14518358 4.14550528 -4.4375 1.1875 C-3.4375 0.1875 -3.4375 0.1875 0 0 Z M-0.4375 2.1875 C-1.0975 2.8475 -1.7575 3.5075 -2.4375 4.1875 C-2.1189823 6.29570797 -2.1189823 6.29570797 -1.4375 8.1875 C-0.1175 7.8575 1.2025 7.5275 2.5625 7.1875 C2.5625 5.8675 2.5625 4.5475 2.5625 3.1875 C1.5725 2.8575 0.5825 2.5275 -0.4375 2.1875 Z M-18.4375 13.1875 C-18.7675 14.8375 -19.0975 16.4875 -19.4375 18.1875 C-18.1175 18.1875 -16.7975 18.1875 -15.4375 18.1875 C-15.4375 16.8675 -15.4375 15.5475 -15.4375 14.1875 C-16.4275 13.8575 -17.4175 13.5275 -18.4375 13.1875 Z M-1.4375 24.1875 C-1.7675 25.5075 -2.0975 26.8275 -2.4375 28.1875 C-0.9525 29.1775 -0.9525 29.1775 0.5625 30.1875 C1.2225 29.8575 1.8825 29.5275 2.5625 29.1875 C2.2325 27.5375 1.9025 25.8875 1.5625 24.1875 C0.5725 24.1875 -0.4175 24.1875 -1.4375 24.1875 Z " fill="#000000" transform="translate(22.4375,-0.1875)"/>
</svg>
