<?xml version="1.0" encoding="UTF-8"?>
<svg version="1.1" xmlns="http://www.w3.org/2000/svg" width="64" height="64">
<path d="M0 0 C4.67729166 2.52167028 7.51090736 5.96650825 10.046875 10.53125 C11.87297504 17.22695014 11.22551679 22.50969478 7.8671875 28.5546875 C6.87730557 30.15150433 5.83901632 31.71803802 4.796875 33.28125 C5.68375 33.69375 6.570625 34.10625 7.484375 34.53125 C15.21463694 38.61516197 19.62347827 44.44050274 23.171875 52.34375 C23.96963957 56.09324347 23.92894493 59.45122202 23.796875 63.28125 C21.816875 63.28125 19.836875 63.28125 17.796875 63.28125 C17.72210938 62.66378906 17.64734375 62.04632813 17.5703125 61.41015625 C16.39244485 53.82330284 13.89427168 47.52663603 7.73046875 42.64453125 C0.31320407 37.87726537 -6.48266208 37.58515983 -15.203125 38.28125 C-21.93081771 40.19749684 -26.06144758 44.65004631 -30.390625 49.96875 C-32.74634961 54.2740398 -33.47967744 58.46461228 -34.203125 63.28125 C-36.183125 63.28125 -38.163125 63.28125 -40.203125 63.28125 C-40.84055492 54.51658855 -37.85539823 47.82170593 -32.62890625 40.84765625 C-30.17313004 38.1496665 -27.26998528 36.22165686 -24.203125 34.28125 C-23.213125 33.62125 -22.223125 32.96125 -21.203125 32.28125 C-21.821875 31.559375 -22.440625 30.8375 -23.078125 30.09375 C-27.12854132 24.73290487 -28.08619987 19.8932731 -27.203125 13.28125 C-25.34044782 7.36513327 -22.21903712 3.80306064 -17.203125 0.28125 C-11.84906913 -1.50343529 -5.40672306 -1.76389547 0 0 Z M-20.578125 12.15625 C-21.96098193 16.85796357 -21.77889482 20.21196319 -19.453125 24.53125 C-16.87101627 27.68716067 -14.9250588 29.94027301 -10.8359375 30.75 C-6.47472712 30.8043453 -3.21183113 30.8313012 0.296875 28.03125 C3.60328212 24.39420217 4.62910401 22.79118888 5.171875 17.90625 C4.65440094 12.90400071 2.68315956 9.96686599 -1.0390625 6.640625 C-8.58316803 1.90172838 -15.85605326 5.71706127 -20.578125 12.15625 Z " fill="#000000" transform="translate(40.203125,0.71875)"/>
</svg>
