<?xml version="1.0" encoding="UTF-8"?>
<svg version="1.1" xmlns="http://www.w3.org/2000/svg" width="64" height="64">
<path d="M0 0 C4.55006566 3.58508529 8.7749479 7.16242184 12 12 C12.15494509 15.33131935 11.52991835 17.31041794 9.49609375 19.95703125 C1.76961355 28.12056487 -8.21884635 34.45683586 -19.65234375 35.1640625 C-32.00831532 34.70315108 -41.70658869 27.67338832 -50 19 C-52 16 -52 16 -52.125 13.3125 C-49.55625684 5.74897846 -42.30450772 1.02291958 -35.56640625 -2.7421875 C-22.78393099 -9.00696229 -11.94178171 -7.65986795 0 0 Z M-41.89453125 8.72265625 C-43.29852089 10.11349377 -44.65524959 11.55180725 -46 13 C-43.16603635 19.6472027 -36.79475017 24.43133912 -30.375 27.4375 C-22.52038523 30.47624561 -16.71082681 30.2541104 -9 27 C-3.16764091 23.81189375 1.4944796 19.8520989 6 15 C3.16603635 8.3527973 -3.20524983 3.56866088 -9.625 0.5625 C-22.05326591 -4.24567196 -32.36666402 0.05917285 -41.89453125 8.72265625 Z " fill="#000000" transform="translate(52,18)"/>
<path d="M0 0 C4.36045847 2.22136563 7.13277421 4.43567029 9 9 C9.53635899 13.82723092 9.52017901 15.97890786 7.3125 20.3125 C3.73770791 24.4669881 1.56223989 25.82641779 -3.9375 26.4375 C-8.2150513 26.25994127 -10.73416458 24.81013746 -14 22 C-16.88516342 18.5378039 -17.53917865 15.51203116 -17.3515625 10.9921875 C-16.57919747 6.61545234 -14.06326048 3.8860504 -10.75 1.125 C-7.10164042 -0.36751074 -3.84747819 -0.67896674 0 0 Z M-10 7 C-11.92199114 9.56265486 -12.01028636 10.83198949 -11.8125 14.0625 C-10.96429365 17.12909218 -10.63183484 18.27569441 -8 20 C-4.90029156 20.85736616 -2.84694533 21.25878885 0.25 20.3125 C2.44657038 18.66507222 3.19470612 17.63550724 4 15 C3.81145593 11.92044678 3.51332877 9.78350181 1.8125 7.1875 C-2.08778769 4.6321391 -6.20464438 4.15348329 -10 7 Z " fill="#000000" transform="translate(36,19)"/>
</svg>
